<svg viewBox="0 0 128 128" fill="none" xmlns="http://www.w3.org/2000/svg">
  <defs>
    <linearGradient id="lineGold" x1="0%" y1="0%" x2="100%" y2="100%">
      <stop offset="0%" stop-color="#FFEBB8"/>
      <stop offset="40%" stop-color="#E0B872"/>
      <stop offset="80%" stop-color="#C68958"/>
      <stop offset="100%" stop-color="#8A5229"/>
    </linearGradient>

    <radialGradient id="lineBg" cx="40%" cy="35%" r="70%">
      <stop offset="0%" stop-color="#3D1D12"/>
      <stop offset="70%" stop-color="#210D07"/>
      <stop offset="100%" stop-color="#0F0503"/>
    </radialGradient>

    <filter id="lineGlow" x="-20%" y="-20%" width="140%" height="140%">
      <feDropShadow dx="0" dy="3" stdDeviation="3" flood-color="#E0B872" flood-opacity="0.3"/>
      <feDropShadow dx="0" dy="5" stdDeviation="6" flood-color="#000000" flood-opacity="0.6"/>
    </filter>
  </defs>

  <g filter="url(#lineGlow)">
    <rect x="12" y="12" width="104" height="104" rx="26" fill="url(#lineBg)" stroke="url(#lineGold)" stroke-width="1" opacity="0.9"/>
    <path d="M 28 42 C 28 32 36 26 48 26 L 86 26 C 96 26 104 32 104 42 L 104 84 C 104 94 96 100 86 100 L 42 100 C 30 100 22 92 22 80 L 22 52 C 22 46 25 42 28 42 Z" stroke="url(#lineGold)" stroke-width="3.5" stroke-linecap="round" stroke-linejoin="round"/>
    <path d="M 22 54 C 42 46 76 46 104 54" stroke="url(#lineGold)" stroke-width="3" stroke-linecap="round"/>
    <path d="M 32 34 L 84 34 C 91 34 96 38 96 44 L 96 78 C 96 85 91 89 84 89 L 38 89 C 30 89 28 83 28 76 L 28 48" stroke="url(#lineGold)" stroke-width="1.8" stroke-dasharray="4 3" opacity="0.75" stroke-linecap="round"/>
    <path d="M 76 58 L 100 58 C 105 58 108 61 108 66 C 108 71 105 74 100 74 L 76 74" stroke="url(#lineGold)" stroke-width="3" stroke-linecap="round" stroke-linejoin="round"/>
    <circle cx="85" cy="66" r="3.5" fill="url(#lineGold)"/>
  </g>
</svg>
